<?xml version="1.0" encoding="UTF-8"?><svg id="_イヤー_2" xmlns="http://www.w3.org/2000/svg" viewBox="0 0 152.59 141.23"><defs><style>.cls-1{fill:#040000;}.cls-2{stroke-linecap:round;}.cls-2,.cls-3{fill:none;stroke:#040000;stroke-miterlimit:10;}.cls-3{stroke-width:1.13px;}.cls-4{fill:#231815;}</style></defs><g id="_ゴ"><g id="_字"><g><g><line class="cls-2" x1="76.29" y1="24.31" x2="76.29" y2="1.72"/><path class="cls-4" d="M101.15,3.05c-8.44,5.35-16.89-5.35-25.33,0,0,3.56,0,7.13,0,10.69,8.44-5.35,16.89,5.35,25.33,0-2.48-.21-4.97-1.81-7.45-3.98,2.48-1.4,4.97-3.36,7.45-6.72Z"/><circle class="cls-3" cx="76.29" cy="1.04" r=".47"/></g><polygon class="cls-1" points="122.33 52.79 76.29 18.85 30.25 52.79 0 109.58 10.23 117.12 24.28 117.12 24.28 110.18 13.89 110.18 20.08 103.44 15.67 103.44 20.56 96.93 18.69 96.93 26.19 84.23 33.45 96.93 31.74 96.93 36.47 103.44 32.26 103.44 38.24 110.18 27.86 110.18 27.86 117.12 41.81 117.12 60.88 64.54 91.7 64.54 110.78 117.12 123.13 117.12 123.13 110.18 112.75 110.18 118.94 103.44 114.52 103.44 119.41 96.93 117.54 96.93 125.04 84.23 132.3 96.93 130.59 96.93 135.32 103.44 131.11 103.44 137.1 110.18 126.71 110.18 126.71 117.12 142.36 117.12 152.59 109.58 122.33 52.79"/><g><g><path class="cls-4" d="M51.4,140.86l.26-.07c.37-.11,.44-.16,.44-.91v-5.29c0-.75-.07-.83-.44-.91l-.31-.06v-.19l2.21-.25,.07,.05v6.65c0,.75,.07,.8,.44,.91l.26,.07v.18h-2.95v-.18Zm2.33-2.67l1.22-1.14c.69-.64,.36-.8-.01-.91l-.26-.07v-.18h2.53v.18l-.26,.07c-.39,.11-.53,.3-1.21,.91l-.69,.61,1.33,2.21c.39,.65,.52,.83,.81,.92l.21,.06v.18h-2.17l-1.5-2.85Z"/><path class="cls-4" d="M57.73,139.95c0-1.38,1.55-1.63,2.9-1.9v-.66c0-.61-.36-1.1-.99-1.1-.51,0-.69,.27-.69,.62v.36l-.04,.07c-.15,.08-.36,.15-.54,.15-.25,0-.36-.18-.36-.38,0-.42,.42-.78,.74-.98,.41-.26,.95-.43,1.48-.43,1.22,0,1.91,.63,1.91,1.88v2.3c0,.75,.07,.83,.44,.91l.31,.06v.19l-2.1,.11-.07-.05v-.73h-.02c-.49,.49-.94,.81-1.56,.81-.74,0-1.4-.45-1.4-1.22Zm2.9-.19v-1.3c-.67,.13-1.34,.35-1.34,1.05,0,.42,.26,.76,.73,.76,.4,0,.61-.24,.61-.52Z"/><path class="cls-4" d="M63.19,140.86l.26-.07c.37-.11,.44-.16,.44-.91v-2.73c0-.75-.07-.83-.44-.91l-.31-.06v-.19l2.13-.25,.07,.05v.92h.01c.55-.72,.97-1.02,1.47-1.02s.82,.35,.82,.83c0,.52-.46,.8-.79,.78l-.06-.03c-.08-.27-.38-.51-.7-.51-.54,0-.66,.38-.66,.61v2.51c0,.75,.07,.83,.44,.9l.47,.08v.18h-3.16v-.18Z"/><path class="cls-4" d="M68.56,139.61v-2.47c0-.75-.07-.83-.44-.91l-.31-.06v-.19l2.21-.25,.07,.05v3.55c0,.62,.35,.99,.92,.99,.51,0,.83-.32,.83-.61v-2.57c0-.75-.07-.83-.44-.91l-.31-.06v-.19l2.21-.25,.07,.05v4.09c0,.75,.07,.83,.44,.91l.31,.06v.19l-2.15,.11-.07-.05v-.73h-.01c-.48,.47-.99,.86-1.73,.86-1,0-1.61-.61-1.61-1.61Z"/><path class="cls-4" d="M74.68,140.86l.26-.07c.37-.11,.44-.16,.44-.91v-2.73c0-.75-.07-.83-.44-.91l-.31-.06v-.19l2.21-.25,.07,.05v4.09c0,.75,.07,.8,.44,.91l.26,.07v.18h-2.95v-.18Zm.61-6.85c0-.36,.24-.75,.88-.75,.58,0,.85,.31,.85,.74,0,.5-.36,.76-.89,.76-.58,0-.84-.35-.84-.75Z"/><path class="cls-4" d="M78.09,140.57l2.37-4.23h-.69c-.88,0-.97,.2-1.06,.6l-.11,.44h-.23v-1.5h3.69v.46l-2.35,4.24h.92c.88,0,1.01-.24,1.17-.63l.18-.43,.23,.06-.21,1.44h-3.91v-.46Z"/><path class="cls-4" d="M82.79,139.95c0-1.38,1.55-1.63,2.9-1.9v-.66c0-.61-.36-1.1-.99-1.1-.51,0-.69,.27-.69,.62v.36l-.04,.07c-.15,.08-.36,.15-.54,.15-.25,0-.36-.18-.36-.38,0-.42,.42-.78,.74-.98,.41-.26,.95-.43,1.48-.43,1.22,0,1.91,.63,1.91,1.88v2.3c0,.75,.07,.83,.44,.91l.31,.06v.19l-2.1,.11-.07-.05v-.73h-.02c-.49,.49-.94,.81-1.56,.81-.74,0-1.4-.45-1.4-1.22Zm2.9-.19v-1.3c-.67,.13-1.34,.35-1.34,1.05,0,.42,.26,.76,.73,.76,.4,0,.61-.24,.61-.52Z"/><path class="cls-4" d="M88.59,137.05c-.14-.64-.2-.81-.42-.91l-.17-.07v-.18h2.67v.18l-.26,.07c-.28,.08-.4,.17-.29,.91l.27,1.97c.03,.24,.08,.64,.09,.81h.02c.02-.17,.19-.6,.27-.81l1.3-3.14h.74l1.04,3.18c.07,.22,.18,.54,.2,.75h.02c.01-.13,.07-.4,.16-.77l.41-1.83c.18-.8,.01-1-.26-1.07l-.31-.07v-.18h1.83v.18l-.17,.07c-.22,.09-.27,.27-.42,.91l-.97,4.05h-1.1l-1.05-3c-.06-.19-.16-.46-.16-.61h-.03c-.01,.11-.13,.42-.22,.64l-1.27,2.96h-1.09l-.84-4.05Z"/><path class="cls-4" d="M96.23,139.95c0-1.38,1.55-1.63,2.9-1.9v-.66c0-.61-.36-1.1-.99-1.1-.51,0-.69,.27-.69,.62v.36l-.04,.07c-.15,.08-.36,.15-.54,.15-.25,0-.36-.18-.36-.38,0-.42,.42-.78,.74-.98,.41-.26,.95-.43,1.48-.43,1.22,0,1.91,.63,1.91,1.88v2.3c0,.75,.07,.83,.44,.91l.31,.06v.19l-2.1,.11-.07-.05v-.73h-.02c-.49,.49-.94,.81-1.56,.81-.74,0-1.4-.45-1.4-1.22Zm2.9-.19v-1.3c-.67,.13-1.34,.35-1.34,1.05,0,.42,.26,.76,.73,.76,.4,0,.61-.24,.61-.52Z"/></g><g><path class="cls-1" d="M20.94,126.55c0-4.52,3.77-6.72,7.8-6.72,1.47,0,2.99,.15,4.35,.6v2.86h-.51l-.23-.85c-.26-1-1.43-1.68-3.52-1.68-3.16,0-4.48,2.6-4.48,5.52,0,3.24,1.05,5.99,3.88,5.99,.38,0,.81-.04,1.15-.11,.45-.09,.68-.43,.68-1.05v-1.73c0-1.52-.15-1.75-.92-1.86l-.98-.15v-.41h6.42v.38l-.55,.15c-.75,.21-.92,.38-.9,1.9l.02,3.01c-1.56,.57-3.52,.77-5.22,.77-4.58,0-6.99-2.49-6.99-6.61Z"/><path class="cls-1" d="M35.4,132.57l.47-.13c.66-.19,.79-.28,.79-1.62v-4.88c0-1.34-.13-1.49-.79-1.62l-.55-.11v-.34l3.8-.45,.13,.09v1.64h.02c.98-1.28,1.73-1.83,2.62-1.83s1.47,.62,1.47,1.49c0,.92-.83,1.43-1.41,1.39l-.11-.06c-.15-.49-.68-.9-1.24-.9-.96,0-1.19,.68-1.19,1.09v4.48c0,1.34,.13,1.49,.79,1.6l.85,.15v.32h-5.65v-.32Z"/><path class="cls-1" d="M44.02,128.24c0-2.49,1.73-4.93,4.61-4.93,2.11,0,3.84,1.41,3.84,3.62,0,.13-.02,.28-.02,.4h-6.33c.13,2.33,1.64,3.86,4.05,3.86,.72,0,1.49-.24,2.07-.66l.24,.32c-.98,1.22-2.22,2.3-3.99,2.3-2.75,0-4.48-2.07-4.48-4.9Zm4.5-1.71c.62,0,1.39,0,1.39-.79,0-.88-.85-1.58-1.69-1.58-1.37,0-1.98,1.17-2.09,2.37h2.39Z"/><path class="cls-1" d="M53.74,128.24c0-2.49,1.73-4.93,4.61-4.93,2.11,0,3.84,1.41,3.84,3.62,0,.13-.02,.28-.02,.4h-6.33c.13,2.33,1.64,3.86,4.05,3.86,.72,0,1.49-.24,2.07-.66l.24,.32c-.98,1.22-2.22,2.3-3.99,2.3-2.75,0-4.48-2.07-4.48-4.9Zm4.5-1.71c.62,0,1.39,0,1.39-.79,0-.88-.85-1.58-1.69-1.58-1.37,0-1.98,1.17-2.09,2.37h2.39Z"/><path class="cls-1" d="M63.34,132.57l.47-.13c.66-.19,.79-.28,.79-1.62v-4.88c0-1.34-.13-1.49-.79-1.62l-.55-.11v-.34l3.84-.45,.13,.09v1.36h.02c.88-.85,1.83-1.54,3.16-1.54,1.83,0,2.96,1.09,2.96,2.88v4.61c0,1.34,.13,1.43,.79,1.62l.47,.13v.32h-5.27v-.32l.47-.13c.66-.19,.79-.28,.79-1.62v-4.12c0-1.11-.66-1.77-1.71-1.77-.94,0-1.56,.56-1.56,1.09v4.8c0,1.34,.13,1.43,.79,1.62l.47,.13v.32h-5.27v-.32Z"/><path class="cls-1" d="M80.19,126.53c0-4.44,3.11-6.7,7.21-6.7,1.15,0,2.3,.21,3.35,.56v3.01h-.53l-.23-1.04c-.19-.88-1.11-1.68-2.75-1.68-2.96,0-3.65,3.2-3.65,5.57,0,2.82,1.09,5.93,4.14,5.93,1.43,0,2.39-.58,2.81-1.51l.43-.96,.49,.11-.57,2.75c-1,.38-2.3,.57-3.6,.57-4.09,0-7.12-2.18-7.12-6.63Z"/><path class="cls-1" d="M92.79,130.95c0-2.47,2.77-2.92,5.18-3.39v-1.19c0-1.09-.64-1.96-1.77-1.96-.9,0-1.22,.49-1.22,1.11v.64l-.08,.13c-.26,.15-.64,.26-.96,.26-.45,0-.64-.32-.64-.68,0-.75,.75-1.39,1.32-1.75,.73-.47,1.69-.77,2.64-.77,2.18,0,3.41,1.13,3.41,3.35v4.1c0,1.34,.13,1.49,.79,1.62l.55,.11v.34l-3.75,.19-.13-.09v-1.3h-.04c-.87,.87-1.68,1.45-2.79,1.45-1.32,0-2.5-.81-2.5-2.18Zm5.18-.34v-2.32c-1.21,.23-2.39,.62-2.39,1.88,0,.75,.47,1.36,1.3,1.36,.72,0,1.09-.43,1.09-.92Z"/><path class="cls-1" d="M102.82,132.63l-.17-2.37,.42-.08,.26,.79c.26,.77,.98,1.24,1.83,1.24,.77,0,1.62-.4,1.62-1.26,0-1.05-1.07-1.49-2.01-1.98-1.07-.55-2.03-1.32-2.03-2.73,0-2.05,1.84-2.86,3.54-2.86,.62,0,1.49,.09,2.07,.36v2.22h-.41l-.17-.72c-.13-.57-.75-1.07-1.71-1.07-.77,0-1.34,.43-1.34,1.07,0,.79,1.09,1.22,1.71,1.56,1.24,.66,2.35,1.34,2.35,3.05,0,2.15-1.77,3.22-3.69,3.22-.83,0-1.68-.15-2.26-.45Z"/><path class="cls-1" d="M110.67,130.29v-5.65h-1.17l-.08-.08,.19-.72,1.13-.04v-1.81l2.66-.88v2.62l2.43-.08v.9l-.08,.08h-2.35v5.29c0,.94,.47,1.83,1.54,1.83,.4,0,.88-.21,1.09-.38l.25,.34c-.72,.81-1.83,1.36-2.98,1.36-1.79,0-2.64-1.21-2.64-2.79Z"/><path class="cls-1" d="M116.89,132.57l.47-.13c.66-.19,.79-.28,.79-1.62v-9.45c0-1.34-.13-1.49-.79-1.62l-.55-.11v-.34l3.95-.45,.13,.09v11.88c0,1.34,.13,1.43,.79,1.62l.47,.13v.32h-5.27v-.32Z"/><path class="cls-1" d="M123.06,128.24c0-2.49,1.73-4.93,4.61-4.93,2.11,0,3.84,1.41,3.84,3.62,0,.13-.02,.28-.02,.4h-6.33c.13,2.33,1.64,3.86,4.05,3.86,.72,0,1.49-.24,2.07-.66l.25,.32c-.98,1.22-2.22,2.3-3.99,2.3-2.75,0-4.48-2.07-4.48-4.9Zm4.5-1.71c.62,0,1.39,0,1.39-.79,0-.88-.85-1.58-1.69-1.58-1.37,0-1.98,1.17-2.09,2.37h2.39Z"/></g></g></g></g></g></svg>