<?xml version="1.0" encoding="UTF-8"?><svg id="_イヤー_2" xmlns="http://www.w3.org/2000/svg" viewBox="0 0 153.87 141.73"><defs><style>.cls-1,.cls-2,.cls-3,.cls-4{fill:#fff;}.cls-5{fill:none;}.cls-5,.cls-2,.cls-3,.cls-4{stroke:#fff;stroke-miterlimit:10;}.cls-2{stroke-linecap:round;}.cls-3{stroke-width:1.13px;}</style></defs><g id="_ゴ"><g id="_字"><g><g><line class="cls-2" x1="76.94" y1="24.31" x2="76.94" y2="1.72"/><g><path class="cls-1" d="M101.8,3.05c-8.44,5.35-16.89-5.35-25.33,0,0,3.56,0,7.13,0,10.69,8.44-5.35,16.89,5.35,25.33,0-2.48-.21-4.97-1.81-7.45-3.98,2.48-1.4,4.97-3.36,7.45-6.72Z"/><path class="cls-5" d="M101.8,3.05c-8.44,5.35-16.89-5.35-25.33,0,0,3.56,0,7.13,0,10.69,8.44-5.35,16.89,5.35,25.33,0-2.48-.21-4.97-1.81-7.45-3.98,2.48-1.4,4.97-3.36,7.45-6.72Z"/></g><circle class="cls-3" cx="76.94" cy="1.04" r=".47"/></g><polygon class="cls-4" points="122.98 52.79 76.94 18.85 30.9 52.79 .64 109.58 10.88 117.12 24.93 117.12 24.93 110.18 14.54 110.18 20.73 103.44 16.31 103.44 21.2 96.93 19.33 96.93 26.84 84.23 34.1 96.93 32.39 96.93 37.12 103.44 32.9 103.44 38.89 110.18 28.5 110.18 28.5 117.12 42.45 117.12 61.53 64.54 92.35 64.54 111.42 117.12 123.78 117.12 123.78 110.18 113.39 110.18 119.58 103.44 115.16 103.44 120.05 96.93 118.18 96.93 125.69 84.23 132.95 96.93 131.24 96.93 135.97 103.44 131.75 103.44 137.74 110.18 127.35 110.18 127.35 117.12 143 117.12 153.23 109.58 122.98 52.79"/><g><g><g><path class="cls-1" d="M52.04,140.86l.26-.07c.37-.11,.44-.16,.44-.91v-5.29c0-.75-.07-.83-.44-.91l-.31-.06v-.19l2.21-.25,.07,.05v6.65c0,.75,.07,.8,.44,.91l.26,.07v.18h-2.95v-.18Zm2.33-2.67l1.22-1.14c.69-.64,.36-.8-.01-.91l-.26-.07v-.18h2.53v.18l-.26,.07c-.39,.11-.53,.3-1.21,.91l-.69,.61,1.33,2.21c.39,.65,.52,.83,.81,.92l.21,.06v.18h-2.17l-1.5-2.85Z"/><path class="cls-1" d="M58.54,141.54h-2.97l-.07-.14v.14h-3.95v-1.06l.63-.17s.04-.01,.06-.02c0-.06,.02-.18,.02-.41v-5.29c0-.22,0-.34-.02-.41h-.02l-.71-.15v-1.04l2.85-.33,.37,.26,.07,.31v3.9l.47-.43s.06-.06,.09-.09l-.52-.15v-1.06h3.53v1.06l-.63,.17c-.18,.05-.26,.11-.65,.47l-.74,.67,1.12,1.86c.36,.6,.43,.67,.52,.69l.57,.17v1.05Zm-2.37-1h.66c-.08-.12-.16-.25-.25-.4l-1.28-2.13-.32,.29,1.18,2.24Zm-2.97,0h.63c-.04-.18-.05-.4-.05-.66v-6.15l-.62,.07c.07,.22,.08,.49,.08,.79v5.29c0,.26,0,.48-.05,.66Zm1.6-.25l.06,.02,.06,.02-.14-.26c0,.11,0,.18,.01,.23Z"/></g><g><path class="cls-1" d="M58.38,139.95c0-1.38,1.55-1.63,2.9-1.9v-.66c0-.61-.36-1.1-.99-1.1-.51,0-.69,.27-.69,.62v.36l-.04,.07c-.15,.08-.36,.15-.54,.15-.25,0-.36-.18-.36-.38,0-.42,.42-.78,.74-.98,.41-.26,.95-.43,1.48-.43,1.22,0,1.91,.63,1.91,1.88v2.3c0,.75,.07,.83,.44,.91l.31,.06v.19l-2.1,.11-.07-.05v-.73h-.02c-.49,.49-.94,.81-1.56,.81-.74,0-1.4-.45-1.4-1.22Zm2.9-.19v-1.3c-.67,.13-1.34,.35-1.34,1.05,0,.42,.26,.76,.73,.76,.4,0,.61-.24,.61-.52Z"/><path class="cls-1" d="M59.78,141.67c-1.08,0-1.9-.74-1.9-1.72,0-1.63,1.6-2.05,2.9-2.31v-.25c0-.18-.05-.6-.49-.6-.13,0-.17,.03-.17,.03v.59l-.15,.23-.16,.14c-.23,.13-.53,.21-.79,.21-.5,0-.86-.37-.86-.88,0-.68,.61-1.17,.97-1.4,.51-.32,1.14-.51,1.75-.51,1.53,0,2.41,.87,2.41,2.38v2.3c0,.22,0,.34,.02,.41h.03l.71,.15v1.07l-2.75,.14-.36-.3c-.33,.2-.7,.33-1.14,.33Zm-.27-2.63c-.4,.2-.63,.48-.63,.9,0,.61,.69,.82,1.19,.69-.39-.2-.63-.61-.63-1.12,0-.18,.03-.33,.07-.47Zm2.26,.81h.07l.02,.76,.48-.02c-.05-.2-.06-.44-.06-.72v-2.3c0-.77-.29-1.2-.91-1.33,.26,.28,.41,.68,.41,1.14v2.37s0,.07,0,.1Zm-1-.75c-.3,.13-.34,.27-.34,.4,0,.26,.17,.26,.23,.26s.1-.01,.11-.02v-.64Z"/></g><g><path class="cls-1" d="M63.84,140.86l.26-.07c.37-.11,.44-.16,.44-.91v-2.73c0-.75-.07-.83-.44-.91l-.31-.06v-.19l2.13-.25,.07,.05v.92h.01c.55-.72,.97-1.02,1.47-1.02s.82,.35,.82,.83c0,.52-.46,.8-.79,.78l-.06-.03c-.08-.27-.38-.51-.7-.51-.54,0-.66,.38-.66,.61v2.51c0,.75,.07,.83,.44,.9l.47,.08v.18h-3.16v-.18Z"/><path class="cls-1" d="M67.5,141.54h-4.16v-1.06l.63-.17s.04-.01,.06-.02c0-.06,.02-.18,.02-.41v-2.73c0-.22,0-.34-.02-.41h-.03l-.71-.15v-1.04l2.76-.33,.38,.32c.3-.22,.64-.36,1.04-.36,.75,0,1.32,.57,1.32,1.33,0,.36-.14,.69-.4,.93-.26,.24-.61,.36-.92,.35l-.19-.05-.19-.09-.13-.24c-.02-.07-.13-.15-.22-.15-.16,0-.16,.04-.16,.11v2.51c0,.21,0,.33,.01,.4l.9,.16v1.1Zm-2.5-1h.63c-.04-.19-.05-.42-.05-.66v-2.51c0-.05,0-.11,.01-.17h-.09v-.92l-.55,.06c.07,.22,.08,.49,.08,.8v2.73c0,.26,0,.48-.05,.66Zm2.09-4.23c.24,.07,.46,.22,.62,.41h0c.06-.06,.08-.12,.08-.21,0-.32-.26-.5-.71-.21Z"/></g><g><path class="cls-1" d="M69.2,139.61v-2.47c0-.75-.07-.83-.44-.91l-.31-.06v-.19l2.21-.25,.07,.05v3.55c0,.62,.35,.99,.92,.99,.51,0,.83-.32,.83-.61v-2.57c0-.75-.07-.83-.44-.91l-.31-.06v-.19l2.21-.25,.07,.05v4.09c0,.75,.07,.83,.44,.91l.31,.06v.19l-2.15,.11-.07-.05v-.73h-.01c-.48,.47-.99,.86-1.73,.86-1,0-1.61-.61-1.61-1.61Z"/><path class="cls-1" d="M70.82,141.73c-1.28,0-2.11-.83-2.11-2.11v-2.47c0-.22,0-.34-.02-.41h-.03l-.71-.15v-1.04l2.85-.33,.37,.26,.07,.31v3.55c0,.43,.21,.49,.42,.49,.22,0,.32-.1,.34-.13v-2.55c0-.22-.01-.34-.02-.41h-.03l-.71-.15v-1.04l2.85-.33,.37,.26,.07,.31v4.09c0,.22,0,.34,.02,.41h.03l.71,.15v1.07l-2.8,.14-.36-.3c-.36,.22-.79,.38-1.3,.38Zm-1.19-5.37c.07,.22,.08,.48,.08,.79v2.47c0,.73,.38,1.11,1.11,1.11,.08,0,.16,0,.23-.02-.5-.22-.8-.72-.8-1.37v-3.05l-.62,.07Zm3.36,3.51h.06v.76l.54-.03c-.05-.2-.06-.44-.06-.72v-3.59l-.62,.07c.07,.22,.08,.48,.08,.79v2.57s0,.1-.01,.14Z"/></g><g><path class="cls-1" d="M75.33,140.86l.26-.07c.37-.11,.44-.16,.44-.91v-2.73c0-.75-.07-.83-.44-.91l-.31-.06v-.19l2.21-.25,.07,.05v4.09c0,.75,.07,.8,.44,.91l.26,.07v.18h-2.95v-.18Zm.61-6.85c0-.36,.24-.75,.88-.75,.58,0,.85,.31,.85,.74,0,.5-.36,.76-.89,.76-.58,0-.84-.35-.84-.75Z"/><path class="cls-1" d="M78.78,141.54h-3.95v-1.06l.63-.17s.04-.01,.06-.02c0-.06,.02-.18,.02-.41v-2.73c0-.22,0-.34-.02-.41h-.03l-.71-.15v-1.04l2.85-.33,.37,.26,.07,.31v4.09c0,.22,0,.34,.02,.41l.06,.02,.63,.17v1.06Zm-2.29-1h.63c-.04-.18-.05-.4-.05-.66v-3.59l-.62,.07c.07,.22,.08,.48,.08,.79v2.73c0,.26,0,.48-.05,.66Zm.3-5.28c-.79,0-1.34-.51-1.34-1.25,0-.6,.43-1.25,1.38-1.25,.82,0,1.35,.49,1.35,1.24s-.56,1.26-1.39,1.26Zm.03-1.5c-.38,0-.38,.19-.38,.25,0,.08,0,.25,.34,.25,.39,0,.39-.17,.39-.26,0-.11,0-.24-.35-.24Z"/></g><g><path class="cls-1" d="M78.73,140.57l2.37-4.23h-.69c-.88,0-.97,.2-1.06,.6l-.11,.44h-.23v-1.5h3.69v.46l-2.35,4.24h.92c.88,0,1.01-.24,1.17-.63l.18-.43,.23,.06-.21,1.44h-3.91v-.46Z"/><path class="cls-1" d="M83.07,141.54h-4.84v-1.09l2.02-3.59c-.29,.01-.36,.05-.37,.06h0s-.01,.04-.04,.16l-.2,.83h-1.13v-2.5h4.69v1.09l-2,3.61h.07c.58,0,.6-.06,.71-.32l.35-.84,1.08,.3-.34,2.31Zm-3.75-1h.49l2.3-4.15h-.46l-2.33,4.15Z"/></g><g><path class="cls-1" d="M83.43,139.95c0-1.38,1.55-1.63,2.9-1.9v-.66c0-.61-.36-1.1-.99-1.1-.51,0-.69,.27-.69,.62v.36l-.04,.07c-.15,.08-.36,.15-.54,.15-.25,0-.36-.18-.36-.38,0-.42,.42-.78,.74-.98,.41-.26,.95-.43,1.48-.43,1.22,0,1.91,.63,1.91,1.88v2.3c0,.75,.07,.83,.44,.91l.31,.06v.19l-2.1,.11-.07-.05v-.73h-.02c-.49,.49-.94,.81-1.56,.81-.74,0-1.4-.45-1.4-1.22Zm2.9-.19v-1.3c-.67,.13-1.34,.35-1.34,1.05,0,.42,.26,.76,.73,.76,.4,0,.61-.24,.61-.52Z"/><path class="cls-1" d="M84.83,141.67c-1.08,0-1.9-.74-1.9-1.72,0-1.63,1.6-2.05,2.9-2.31v-.25c0-.18-.05-.6-.49-.6-.13,0-.17,.03-.17,.03v.58l-.15,.23-.16,.14c-.23,.13-.53,.21-.78,.21-.5,0-.86-.37-.86-.88,0-.68,.61-1.17,.97-1.4,.51-.32,1.14-.51,1.75-.51,1.53,0,2.41,.87,2.41,2.38v2.3c0,.22,0,.34,.02,.41h.02l.71,.15v1.07l-2.75,.14-.36-.3c-.33,.2-.7,.33-1.14,.33Zm-.27-2.63c-.4,.2-.63,.48-.63,.9,0,.61,.69,.82,1.19,.69-.39-.2-.63-.61-.63-1.12,0-.18,.03-.33,.07-.47Zm2.26,.81h.07l.02,.76,.49-.02c-.05-.21-.06-.45-.06-.72v-2.3c0-.77-.29-1.2-.92-1.33,.26,.28,.41,.68,.41,1.14v2.37s0,.07,0,.1Zm-1-.75c-.3,.13-.34,.27-.34,.4,0,.26,.17,.26,.23,.26s.1-.01,.11-.02v-.64Z"/></g><g><path class="cls-1" d="M89.24,137.05c-.14-.64-.2-.81-.42-.91l-.17-.07v-.18h2.67v.18l-.26,.07c-.28,.08-.4,.17-.29,.91l.27,1.97c.03,.24,.08,.64,.09,.81h.02c.02-.17,.19-.6,.27-.81l1.3-3.14h.74l1.04,3.18c.07,.22,.18,.54,.2,.75h.02c.01-.13,.07-.4,.16-.77l.41-1.83c.18-.8,.01-1-.26-1.07l-.31-.07v-.18h1.83v.18l-.17,.07c-.22,.09-.27,.27-.42,.91l-.97,4.05h-1.1l-1.05-3c-.06-.19-.16-.46-.16-.61h-.03c-.01,.11-.13,.42-.22,.64l-1.27,2.96h-1.09l-.84-4.05Z"/><path class="cls-1" d="M95.39,141.6h-1.85l-.92-2.63-1.12,2.63h-1.82l-.93-4.45c-.03-.14-.11-.5-.16-.58l-.44-.18v-1.01h3.67v1.06l-.6,.17c0,.07,0,.18,.03,.36l.12,.85,1.01-2.45h1.44l.81,2.48,.17-.76c.06-.27,.07-.41,.06-.48l-.64-.15v-1.07h2.83v1.01l-.47,.2s-.09,.35-.13,.56l-1.06,4.44Zm-1.14-1h.35l.07-.29h-.4l-.07-.45c-.01-.16-.12-.47-.18-.64l-.97-2.84-.25,.61h.36l.03,.5c0,.07,.09,.32,.12,.42l.95,2.68Zm-3.77,0h.35l.11-.27h-.27l-.05-.47c0-.15-.05-.49-.08-.72l-.28-2.03c-.04-.26-.06-.51-.03-.73h-.64c.05,.17,.09,.35,.13,.56h0l.76,3.65Z"/></g><g><path class="cls-1" d="M96.88,139.95c0-1.38,1.55-1.63,2.9-1.9v-.66c0-.61-.36-1.1-.99-1.1-.51,0-.69,.27-.69,.62v.36l-.04,.07c-.15,.08-.36,.15-.54,.15-.25,0-.36-.18-.36-.38,0-.42,.42-.78,.74-.98,.41-.26,.95-.43,1.48-.43,1.22,0,1.91,.63,1.91,1.88v2.3c0,.75,.07,.83,.44,.91l.31,.06v.19l-2.1,.11-.07-.05v-.73h-.02c-.49,.49-.94,.81-1.56,.81-.74,0-1.4-.45-1.4-1.22Zm2.9-.19v-1.3c-.67,.13-1.34,.35-1.34,1.05,0,.42,.26,.76,.73,.76,.4,0,.61-.24,.61-.52Z"/><path class="cls-1" d="M98.28,141.67c-1.08,0-1.9-.74-1.9-1.72,0-1.63,1.6-2.05,2.9-2.31v-.25c0-.18-.05-.6-.49-.6-.13,0-.17,.03-.17,.03v.58l-.15,.23-.16,.14c-.23,.13-.53,.21-.78,.21-.5,0-.86-.37-.86-.88,0-.68,.61-1.17,.97-1.4,.51-.32,1.14-.51,1.75-.51,1.53,0,2.41,.87,2.41,2.38v2.3c0,.22,0,.34,.02,.41h.02l.71,.15v1.07l-2.75,.14-.36-.3c-.33,.2-.7,.33-1.14,.33Zm-.27-2.63c-.4,.2-.63,.48-.63,.9,0,.61,.69,.82,1.19,.69-.39-.2-.63-.61-.63-1.12,0-.18,.03-.33,.07-.47Zm2.26,.81h.07l.02,.76,.49-.02c-.05-.21-.06-.45-.06-.72v-2.3c0-.77-.29-1.2-.92-1.33,.26,.28,.41,.68,.41,1.14v2.37s0,.07,0,.1Zm-1-.75c-.3,.13-.34,.27-.34,.4,0,.26,.17,.26,.23,.26s.1-.01,.11-.02v-.64Z"/></g></g><g><g><path class="cls-1" d="M21.58,126.55c0-4.52,3.77-6.72,7.8-6.72,1.47,0,2.99,.15,4.35,.6v2.86h-.51l-.23-.85c-.26-1-1.43-1.68-3.52-1.68-3.16,0-4.48,2.6-4.48,5.52,0,3.24,1.05,5.99,3.88,5.99,.38,0,.81-.04,1.15-.11,.45-.09,.68-.43,.68-1.05v-1.73c0-1.52-.15-1.75-.92-1.86l-.98-.15v-.41h6.42v.38l-.55,.15c-.75,.21-.92,.38-.9,1.9l.02,3.01c-1.56,.57-3.52,.77-5.22,.77-4.58,0-6.99-2.49-6.99-6.61Z"/><path class="cls-1" d="M28.57,133.66c-4.76,0-7.49-2.59-7.49-7.11,0-4.99,4.17-7.22,8.3-7.22,1.74,0,3.26,.21,4.51,.63l.34,.11v3.72h-1.39l-.32-1.22c-.22-.83-1.33-1.3-3.04-1.3-3.69,0-3.98,3.84-3.98,5.02,0,2.05,.44,5.49,3.38,5.49,.37,0,.75-.04,1.04-.1,.12-.02,.29-.06,.29-.57v-1.73c0-1.3-.06-1.3-.49-1.37l-1.41-.22v-1.34h7.42v1.26l-.91,.25c-.5,.14-.55,.15-.54,1.41l.02,3.37-.33,.12c-1.93,.7-4.2,.8-5.39,.8Zm-.21-13.28c-3.27,.33-6.28,2.28-6.28,6.17,0,3.67,2,5.81,5.66,6.08-2.08-.57-3.25-2.81-3.25-6.34,0-3.24,1.46-5.41,3.87-5.91Zm2.45,7.07c.33,.37,.38,.99,.38,1.93v1.73c0,.94-.45,1.32-.84,1.47,.91-.08,1.96-.24,2.92-.55l-.02-2.65c-.01-.99,.05-1.57,.4-1.93h-2.85Zm.07-7.06c1.12,.21,1.93,.67,2.35,1.35v-.94c-.7-.2-1.48-.34-2.35-.41Z"/></g><g><path class="cls-1" d="M36.04,132.57l.47-.13c.66-.19,.79-.28,.79-1.62v-4.88c0-1.34-.13-1.49-.79-1.62l-.55-.11v-.34l3.8-.45,.13,.09v1.64h.02c.98-1.28,1.73-1.83,2.62-1.83s1.47,.62,1.47,1.49c0,.92-.83,1.43-1.41,1.39l-.11-.06c-.15-.49-.68-.9-1.24-.9-.96,0-1.19,.68-1.19,1.09v4.48c0,1.34,.13,1.49,.79,1.6l.85,.15v.32h-5.65v-.32Z"/><path class="cls-1" d="M42.19,133.39h-6.65v-1.2l.84-.23q.43-.12,.43-1.14v-4.88c0-1.05-.01-1.05-.39-1.13l-.95-.2v-1.19l4.44-.53,.5,.36v.58c.72-.71,1.39-1.01,2.14-1.01,1.12,0,1.97,.85,1.97,1.99,0,.53-.21,1.02-.59,1.38-.38,.35-.88,.54-1.35,.52l-.3-.11-.19-.1-.06-.2c-.08-.27-.41-.55-.76-.55-.46,0-.69,.2-.69,.59v4.48c0,.76,.05,.98,.1,1.04,.01,0,.06,.04,.28,.07l1.26,.22v1.24Zm-4.65-1h2.26c-.22-.34-.25-.85-.25-1.57v-4.48c0-.24,.05-.47,.14-.69h-.27l-.02-1.68-1.99,.24c.34,.34,.39,.89,.39,1.74v4.88c0,.78-.04,1.25-.26,1.57Zm3.7-7.64c.64,0,1.27,.39,1.58,.94,.13-.03,.28-.11,.41-.23,.13-.12,.28-.33,.28-.65,0-.59-.39-.99-.97-.99-.54,0-1.04,.28-1.65,.95,.11-.02,.23-.03,.35-.03Z"/></g><g><path class="cls-1" d="M44.67,128.24c0-2.49,1.73-4.93,4.61-4.93,2.11,0,3.84,1.41,3.84,3.62,0,.13-.02,.28-.02,.4h-6.33c.13,2.33,1.64,3.86,4.05,3.86,.72,0,1.49-.24,2.07-.66l.24,.32c-.98,1.22-2.22,2.3-3.99,2.3-2.75,0-4.48-2.07-4.48-4.9Zm4.5-1.71c.62,0,1.39,0,1.39-.79,0-.88-.85-1.58-1.69-1.58-1.37,0-1.98,1.17-2.09,2.37h2.39Z"/><path class="cls-1" d="M49.15,133.64c-2.93,0-4.98-2.22-4.98-5.4,0-2.67,1.91-5.43,5.11-5.43,2.52,0,4.34,1.73,4.34,4.12,0,.08,0,.16-.01,.25,0,.05,0,.11,0,.15v.5h-6.27c.3,1.8,1.57,2.86,3.49,2.86,.62,0,1.28-.21,1.78-.57l.39-.28,.78,1.01-.24,.31c-.85,1.07-2.24,2.49-4.38,2.49Zm-2.09-9.18c-1.24,.83-1.89,2.34-1.89,3.78,0,2.63,1.6,4.4,3.98,4.4,.96,0,1.8-.34,2.64-1.08-.32,.08-.65,.12-.96,.12-2.61,0-4.4-1.7-4.55-4.33l-.05-.32,.05-.55c.08-.84,.35-1.53,.78-2.02Zm3.38,2.36h2.19c-.05-1.61-1.23-2.81-2.9-2.99,.77,.33,1.34,1.08,1.34,1.91,0,.59-.27,.91-.63,1.08Zm-3.07-.79h1.8c.89,0,.89-.11,.89-.29,0-.62-.63-1.08-1.19-1.08-.95,0-1.34,.75-1.5,1.37Z"/></g><g><path class="cls-1" d="M54.38,128.24c0-2.49,1.73-4.93,4.61-4.93,2.11,0,3.84,1.41,3.84,3.62,0,.13-.02,.28-.02,.4h-6.33c.13,2.33,1.64,3.86,4.05,3.86,.72,0,1.49-.24,2.07-.66l.24,.32c-.98,1.22-2.22,2.3-3.99,2.3-2.75,0-4.48-2.07-4.48-4.9Zm4.5-1.71c.62,0,1.39,0,1.39-.79,0-.88-.85-1.58-1.69-1.58-1.37,0-1.98,1.17-2.09,2.37h2.39Z"/><path class="cls-1" d="M58.86,133.64c-2.93,0-4.98-2.22-4.98-5.4,0-2.67,1.91-5.43,5.11-5.43,2.52,0,4.34,1.73,4.34,4.12,0,.08,0,.16-.01,.25,0,.05,0,.11,0,.15v.5h-6.27c.3,1.8,1.57,2.86,3.49,2.86,.62,0,1.28-.21,1.78-.57l.39-.28,.78,1.01-.24,.31c-.85,1.07-2.24,2.49-4.38,2.49Zm-2.09-9.18c-1.24,.83-1.89,2.34-1.89,3.78,0,2.63,1.6,4.4,3.98,4.4,.96,0,1.8-.34,2.64-1.08-.32,.08-.65,.12-.96,.12-2.61,0-4.4-1.7-4.55-4.33l-.05-.32,.05-.55c.08-.84,.35-1.53,.78-2.02Zm3.38,2.36h2.19c-.05-1.61-1.23-2.81-2.9-2.99,.77,.33,1.34,1.08,1.34,1.91,0,.59-.27,.91-.63,1.08Zm-3.07-.79h1.8c.89,0,.89-.11,.89-.29,0-.62-.63-1.08-1.19-1.08-.95,0-1.34,.75-1.5,1.37Z"/></g><g><path class="cls-1" d="M63.98,132.57l.47-.13c.66-.19,.79-.28,.79-1.62v-4.88c0-1.34-.13-1.49-.79-1.62l-.55-.11v-.34l3.84-.45,.13,.09v1.36h.02c.88-.85,1.83-1.54,3.16-1.54,1.83,0,2.96,1.09,2.96,2.88v4.61c0,1.34,.13,1.43,.79,1.62l.47,.13v.32h-5.27v-.32l.47-.13c.66-.19,.79-.28,.79-1.62v-4.12c0-1.11-.66-1.77-1.71-1.77-.94,0-1.56,.56-1.56,1.09v4.8c0,1.34,.13,1.43,.79,1.62l.47,.13v.32h-5.27v-.32Z"/><path class="cls-1" d="M75.78,133.39h-12.3v-1.2l.84-.23q.43-.12,.43-1.14v-4.88c0-1.05-.01-1.05-.39-1.13l-.95-.2v-1.19l4.47-.53,.5,.35v.54c.73-.55,1.58-.97,2.68-.97,2.1,0,3.46,1.33,3.46,3.38v4.61q0,1.02,.43,1.14l.83,.23v1.2Zm-4.27-1h2.27c-.22-.32-.26-.79-.26-1.57v-4.61c0-1.51-.9-2.38-2.46-2.38-.72,0-1.32,.23-1.89,.63,.12-.02,.25-.03,.38-.03,1.34,0,2.21,.89,2.21,2.27v4.12c0,.78-.04,1.25-.26,1.57Zm-6.03,0h2.27c-.22-.32-.26-.79-.26-1.57v-4.8c0-.22,.06-.44,.19-.65h-.28l-.02-1.4-2.02,.24c.34,.34,.39,.89,.39,1.74v4.88c0,.78-.04,1.25-.26,1.57Zm4.07-6.96c-.7,0-1.06,.39-1.06,.59v4.8q0,1.02,.43,1.14l.71,.2,.71-.2q.43-.12,.43-1.14v-4.12c0-.82-.43-1.27-1.21-1.27Z"/></g><g><path class="cls-1" d="M80.83,126.53c0-4.44,3.11-6.7,7.21-6.7,1.15,0,2.3,.21,3.35,.56v3.01h-.53l-.23-1.04c-.19-.88-1.11-1.68-2.75-1.68-2.96,0-3.65,3.2-3.65,5.57,0,2.82,1.09,5.93,4.14,5.93,1.43,0,2.39-.58,2.81-1.51l.43-.96,.49,.11-.57,2.75c-1,.38-2.3,.57-3.6,.57-4.09,0-7.12-2.18-7.12-6.63Z"/><path class="cls-1" d="M87.95,133.66c-4.7,0-7.62-2.73-7.62-7.13s2.96-7.2,7.71-7.2c1.16,0,2.37,.2,3.51,.59l.34,.12v3.87h-1.43l-.31-1.43c-.13-.59-.79-1.28-2.26-1.28-2.85,0-3.15,3.55-3.15,5.07,0,.91,.18,5.43,3.64,5.43,1.16,0,2-.43,2.35-1.21l.6-1.33,1.36,.31-.72,3.5-.26,.1c-1.02,.39-2.36,.6-3.77,.6Zm-1.44-13.22c-3.27,.51-5.18,2.7-5.18,6.09,0,3.77,2.39,6.05,6.42,6.13-2.95-.4-4.01-3.61-4.01-6.39,0-3.07,1.01-5.14,2.77-5.83Zm4.74,11.09c-.41,.49-.98,.84-1.68,1.03,.56-.08,1.08-.19,1.54-.34l.14-.69Zm-1.9-11.11c.76,.26,1.26,.73,1.54,1.23v-.89c-.51-.15-1.02-.27-1.54-.34Z"/></g><g><path class="cls-1" d="M93.43,130.95c0-2.47,2.77-2.92,5.18-3.39v-1.19c0-1.09-.64-1.96-1.77-1.96-.9,0-1.22,.49-1.22,1.11v.64l-.08,.13c-.26,.15-.64,.26-.96,.26-.45,0-.64-.32-.64-.68,0-.75,.75-1.39,1.32-1.75,.73-.47,1.69-.77,2.64-.77,2.18,0,3.41,1.13,3.41,3.35v4.1c0,1.34,.13,1.49,.79,1.62l.55,.11v.34l-3.75,.19-.13-.09v-1.3h-.04c-.87,.87-1.68,1.45-2.79,1.45-1.32,0-2.5-.81-2.5-2.18Zm5.18-.34v-2.32c-1.21,.23-2.39,.62-2.39,1.88,0,.75,.47,1.36,1.3,1.36,.72,0,1.09-.43,1.09-.92Z"/><path class="cls-1" d="M95.94,133.64c-1.74,0-3-1.13-3-2.68,0-2.73,2.83-3.34,5.18-3.8v-.77c0-.71-.33-1.46-1.27-1.46-.6,0-.72,.24-.72,.61v.77l-.21,.37-.12,.07c-.36,.2-.82,.33-1.21,.33-.67,0-1.14-.48-1.14-1.18,0-1.04,.97-1.81,1.55-2.17,.84-.54,1.9-.85,2.9-.85,2.48,0,3.91,1.4,3.91,3.85v4.1c0,1.05,.01,1.05,.39,1.13l.95,.2v1.22l-4.4,.22-.48-.35v-.47c-.64,.5-1.39,.86-2.32,.86Zm.6-5.1c-1.59,.44-2.61,1.07-2.61,2.42,0,1.16,1.04,1.68,2,1.68,.62,0,1.14-.22,1.65-.6-1.06,.06-1.86-.74-1.86-1.86,0-.78,.35-1.3,.82-1.65Zm2.45,2.65h.24l.04,.5v.87l1.85-.09c-.26-.34-.31-.87-.31-1.65v-4.1c0-1.92-.95-2.85-2.91-2.85-.25,0-.51,.02-.76,.07,1.18,.14,1.98,1.1,1.98,2.44v4.24c0,.2-.04,.39-.12,.57Zm-.88-2.27c-.99,.26-1.39,.64-1.39,1.26,0,.2,.06,.86,.8,.86,.37,0,.59-.16,.59-.42v-1.69Zm-2.82-4.21c-.54,.39-.85,.82-.85,1.17,0,.18,.05,.18,.14,.18,.16,0,.36-.04,.54-.11v-.42c0-.31,.06-.59,.18-.81Z"/></g><g><path class="cls-1" d="M103.47,132.63l-.17-2.37,.42-.08,.26,.79c.26,.77,.98,1.24,1.83,1.24,.77,0,1.62-.4,1.62-1.26,0-1.05-1.07-1.49-2.01-1.98-1.07-.55-2.03-1.32-2.03-2.73,0-2.05,1.84-2.86,3.54-2.86,.62,0,1.49,.09,2.07,.36v2.22h-.41l-.17-.72c-.13-.57-.75-1.07-1.71-1.07-.77,0-1.34,.43-1.34,1.07,0,.79,1.09,1.22,1.71,1.56,1.24,.66,2.35,1.34,2.35,3.05,0,2.15-1.77,3.22-3.69,3.22-.83,0-1.68-.15-2.26-.45Z"/><path class="cls-1" d="M105.73,133.58c-.96,0-1.86-.19-2.49-.51l-.25-.13-.22-3.1,1.28-.24,.4,1.2c.19,.55,.71,.9,1.35,.9,.39,0,1.12-.16,1.12-.76s-.55-.93-1.47-1.39l-.28-.14c-.99-.5-2.3-1.38-2.3-3.17,0-2.32,2.03-3.36,4.04-3.36,.33,0,1.45,.03,2.28,.4l.29,.13v3.04h-1.31l-.26-1.1c-.08-.33-.49-.69-1.23-.69-.42,0-.84,.18-.84,.57s.7,.73,1.16,.97l.29,.15c1.1,.58,2.61,1.39,2.61,3.49,0,2.56-2.17,3.72-4.19,3.72Zm-1.78-1.29c.24,.09,.53,.17,.84,.21-.34-.15-.64-.37-.87-.64l.03,.43Zm1.35-8.11c-.8,.34-1.42,.99-1.42,2.06,0,.97,.53,1.66,1.76,2.28l.27,.14c.9,.46,2.01,1.02,2.01,2.28,0,.62-.31,1.08-.75,1.38,.99-.37,1.75-1.17,1.75-2.47,0-1.4-.83-1.94-2.09-2.61l-.27-.14c-.68-.35-1.71-.87-1.71-1.86,0-.42,.16-.79,.44-1.06Zm2.65-.22c.21,.11,.39,.26,.54,.42v-.29c-.17-.05-.35-.09-.54-.12Z"/></g><g><path class="cls-1" d="M111.32,130.29v-5.65h-1.17l-.08-.08,.19-.72,1.13-.04v-1.81l2.66-.88v2.62l2.43-.08v.9l-.08,.08h-2.35v5.29c0,.94,.47,1.83,1.54,1.83,.4,0,.88-.21,1.09-.38l.25,.34c-.72,.81-1.83,1.36-2.98,1.36-1.79,0-2.64-1.21-2.64-2.79Z"/><path class="cls-1" d="M113.95,133.58c-1.93,0-3.14-1.26-3.14-3.29v-5.15h-.87l-.43-.42,.36-1.36,1.02-.03v-1.68l3.66-1.22v2.79l2.43-.08v1.63l-.37,.37h-2.06v4.79c0,.31,.08,1.33,1.04,1.33,.26,0,.65-.16,.77-.26l.41-.34,.79,1.1-.26,.3c-.84,.96-2.1,1.52-3.35,1.52Zm-2.14-9.28v5.99c0,.85,.28,2.29,2.14,2.29,.49,0,.98-.12,1.43-.33-1.11-.1-1.84-1-1.84-2.32v-8.12l-1.66,.55v1.93h-.08Z"/></g><g><path class="cls-1" d="M117.53,132.57l.47-.13c.66-.19,.79-.28,.79-1.62v-9.45c0-1.34-.13-1.49-.79-1.62l-.55-.11v-.34l3.95-.45,.13,.09v11.88c0,1.34,.13,1.43,.79,1.62l.47,.13v.32h-5.27v-.32Z"/><path class="cls-1" d="M123.3,133.39h-6.27v-1.2l.84-.23q.43-.12,.43-1.14v-9.45c0-1.05-.01-1.05-.39-1.13l-.95-.2v-1.19l4.59-.52,.5,.36v12.14q0,1.02,.43,1.14l.83,.23v1.2Zm-4.27-1h2.27c-.22-.32-.26-.79-.26-1.57v-11.43l-2.13,.24c.33,.34,.38,.88,.38,1.73v9.45c0,.78-.04,1.25-.26,1.57Z"/></g><g><path class="cls-1" d="M123.71,128.24c0-2.49,1.73-4.93,4.61-4.93,2.11,0,3.84,1.41,3.84,3.62,0,.13-.02,.28-.02,.4h-6.33c.13,2.33,1.64,3.86,4.05,3.86,.72,0,1.49-.24,2.07-.66l.25,.32c-.98,1.22-2.22,2.3-3.99,2.3-2.75,0-4.48-2.07-4.48-4.9Zm4.5-1.71c.62,0,1.39,0,1.39-.79,0-.88-.85-1.58-1.69-1.58-1.37,0-1.98,1.17-2.09,2.37h2.39Z"/><path class="cls-1" d="M128.19,133.64c-2.93,0-4.98-2.22-4.98-5.4,0-2.67,1.91-5.43,5.11-5.43,2.52,0,4.34,1.73,4.34,4.12,0,.08,0,.17-.01,.25,0,.05,0,.1,0,.15v.5h-6.27c.3,1.8,1.57,2.86,3.49,2.86,.62,0,1.28-.21,1.78-.57l.39-.28,.78,1.01-.24,.31c-.85,1.07-2.24,2.49-4.38,2.49Zm-2.09-9.18c-1.24,.83-1.89,2.34-1.89,3.78,0,2.63,1.6,4.4,3.98,4.4,.96,0,1.8-.34,2.64-1.08-.32,.08-.65,.12-.96,.12-2.61,0-4.4-1.7-4.55-4.33l-.05-.32,.05-.55c.08-.84,.35-1.53,.78-2.02Zm3.38,2.36h2.19c-.05-1.61-1.23-2.81-2.9-2.99,.77,.33,1.34,1.08,1.34,1.91,0,.59-.27,.91-.63,1.08Zm-3.07-.79h1.8c.89,0,.89-.11,.89-.29,0-.62-.63-1.08-1.19-1.08-.95,0-1.34,.75-1.5,1.37Z"/></g></g></g></g></g></g></svg>